<svg width="115" height="29" viewBox="0 0 115 29" fill="none" xmlns="http://www.w3.org/2000/svg">
<path fill-rule="evenodd" clip-rule="evenodd" d="M38.9178 21.6481H33.5576L32.2703 25.5332H30L35.077 11.1595H37.4359L42.513 25.5332H40.2039L38.9178 21.6481ZM34.1127 19.8554H38.3615L36.267 13.5502H36.2084L34.1127 19.8554ZM53.4777 20.294C53.4777 23.5505 51.7725 25.6428 49.1991 25.6428C47.8689 25.714 46.616 25.0018 45.9733 23.8094H45.9246V29H43.8201V15.0536H45.8571V16.7966H45.8958C46.5672 15.6116 47.8214 14.8998 49.1604 14.944C51.7625 14.944 53.4777 17.0464 53.4777 20.294ZM51.3146 20.294C51.3146 18.1723 50.2419 16.7774 48.6052 16.7774C46.9973 16.7774 45.9157 18.2017 45.9157 20.294C45.9157 22.4055 46.9973 23.8196 48.6052 23.8196C50.2419 23.8196 51.3146 22.4349 51.3146 20.294ZM64.7621 20.294C64.7621 23.5505 63.0568 25.6428 60.4835 25.6428C59.1533 25.714 57.9004 25.0018 57.2576 23.8094H57.2089V29H55.1044V15.0536H57.1415V16.7966H57.1802C57.8515 15.6116 59.1058 14.8998 60.4447 14.944C63.0469 14.944 64.7621 17.0464 64.7621 20.294ZM62.599 20.294C62.599 18.1723 61.5263 16.7774 59.8896 16.7774C58.2817 16.7774 57.2001 18.2017 57.2001 20.294C57.2001 22.4055 58.2817 23.8196 59.8896 23.8196C61.5263 23.8196 62.599 22.4349 62.599 20.294ZM72.2202 21.5283C72.3761 22.9537 73.7308 23.8896 75.582 23.8896C77.3559 23.8896 78.632 22.9537 78.632 21.6684C78.632 20.5528 77.8624 19.8847 76.0399 19.4269L74.2174 18.9782C71.6352 18.3406 70.4364 17.1063 70.4364 15.1033C70.4364 12.6233 72.5508 10.9198 75.5533 10.9198C78.5247 10.9198 80.5618 12.6233 80.6304 15.1033H78.5059C78.3788 13.6689 77.2187 12.803 75.5234 12.803C73.8281 12.803 72.668 13.679 72.668 14.9541C72.668 15.9703 73.409 16.5682 75.2215 17.026L76.7708 17.4148C79.6561 18.1123 80.8548 19.2969 80.8548 21.3994C80.8548 24.0885 78.7592 25.7727 75.4261 25.7727C72.3075 25.7727 70.2019 24.1281 70.0659 21.5282L72.2202 21.5283ZM85.3967 12.5736V15.0536H87.3464V16.7571H85.3967V22.5343C85.3967 23.4318 85.7871 23.8501 86.6441 23.8501C86.8756 23.846 87.1067 23.8293 87.3364 23.8003V25.4936C86.9511 25.5672 86.5594 25.6005 86.1675 25.5931C84.0918 25.5931 83.2822 24.7962 83.2822 22.7638V16.7571H81.7915V15.0536H83.2822V12.5736H85.3967ZM88.4755 20.294C88.4755 16.9967 90.3754 14.9248 93.3381 14.9248C96.3107 14.9248 98.2017 16.9967 98.2017 20.294C98.2017 23.6003 96.3206 25.6632 93.3381 25.6632C90.3566 25.6632 88.4755 23.6003 88.4755 20.294ZM96.0574 20.294C96.0574 18.0321 95.0433 16.6972 93.338 16.6972C91.6328 16.6972 90.6198 18.0423 90.6198 20.294C90.6198 22.5649 91.6328 23.8897 93.338 23.8897C95.0433 23.8897 96.0574 22.5649 96.0574 20.294ZM99.9368 15.0536H101.944V16.8373H101.993C102.273 15.6891 103.302 14.8988 104.459 14.9439C104.701 14.9431 104.943 14.97 105.18 15.0242V17.0362C104.874 16.9406 104.554 16.8967 104.234 16.9063C103.616 16.8806 103.017 17.1326 102.595 17.5962C102.174 18.0597 101.971 18.6885 102.041 19.3173V25.5332H99.9368L99.9368 15.0536ZM114.883 22.4552C114.6 24.3576 112.787 25.6632 110.468 25.6632C107.486 25.6632 105.634 23.6206 105.634 20.3437C105.634 17.0566 107.495 14.9247 110.38 14.9247C113.216 14.9247 115 16.9164 115 20.0939V20.8309H107.759V20.9609C107.691 21.7411 107.955 22.5133 108.482 23.0813C109.01 23.6492 109.751 23.958 110.517 23.9292C111.538 24.027 112.501 23.4276 112.884 22.4552L114.883 22.4552ZM107.769 19.3275L112.894 19.3275C112.933 18.6264 112.683 17.9409 112.206 17.436C111.728 16.9311 111.066 16.6527 110.38 16.6678C109.687 16.6635 109.022 16.9421 108.532 17.4416C108.042 17.941 107.767 18.62 107.769 19.3275ZM33.849 0.340302C34.7424 0.27477 35.6175 0.622206 36.2333 1.28698C36.8492 1.95176 37.141 2.8638 37.0284 3.77208C37.0284 5.97854 35.8617 7.24686 33.849 7.24686H31.4083V0.340302H33.849ZM32.4578 6.27013H33.7317C34.3702 6.30914 34.9919 6.05201 35.4242 5.57014C35.8565 5.08826 36.0533 4.43295 35.9601 3.78615C36.0465 3.14204 35.8468 2.49213 35.4156 2.01419C34.9844 1.53625 34.3668 1.28028 33.7317 1.31631H32.4578V6.27013ZM38.2139 4.63846C38.1264 3.70423 38.5647 2.8001 39.3448 2.30526C40.125 1.81041 41.1122 1.81041 41.8923 2.30526C42.6725 2.8001 43.1108 3.70423 43.0233 4.63846C43.1124 5.57369 42.6745 6.47957 41.8937 6.97548C41.1128 7.47139 40.1243 7.47139 39.3435 6.97548C38.5626 6.47957 38.1248 5.57369 38.2139 4.63846ZM41.9882 4.63846C41.9882 3.50867 41.4917 2.84797 40.6202 2.84797C39.7455 2.84797 39.2534 3.50867 39.2534 4.63847C39.2534 5.77731 39.7455 6.43292 40.6202 6.43292C41.4917 6.4329 41.9882 5.77278 41.9882 4.63846ZM49.4164 7.24676H48.3725L47.3186 3.40805H47.2389L46.1895 7.24676H45.1555L43.7499 2.03466H44.7706L45.6841 6.0118H45.7593L46.8076 2.03466H47.7731L48.8214 6.0118H48.9011L49.8101 2.03466H50.8164L49.4164 7.24676ZM51.9986 2.03466H52.9674V2.86265H53.0426C53.3041 2.25303 53.9152 1.88012 54.5643 1.93405C55.0668 1.89543 55.5593 2.0925 55.9027 2.46962C56.2461 2.84675 56.403 3.363 56.3292 3.87262V7.2467H55.3229V4.13092C55.3229 3.29333 54.9668 2.87678 54.2225 2.87678C53.8816 2.86055 53.5508 2.9973 53.3168 3.25118C53.0828 3.50506 52.9689 3.85074 53.005 4.1976V7.24676H51.9986L51.9986 2.03466ZM57.9328 0H58.9391V7.24675H57.9328V0ZM60.338 4.63846C60.2507 3.70417 60.689 2.80002 61.4692 2.30516C62.2494 1.81031 63.2367 1.81031 64.0169 2.30516C64.7971 2.80002 65.2354 3.70417 65.1481 4.63846C65.2371 5.57372 64.7991 6.47958 64.0182 6.97547C63.2373 7.47136 62.2488 7.47136 61.4679 6.97547C60.687 6.47958 60.2491 5.57372 60.338 4.63846ZM64.1124 4.63846C64.1124 3.50867 63.6159 2.84797 62.7444 2.84797C61.8697 2.84797 61.3776 3.50867 61.3776 4.63847C61.3776 5.77731 61.8697 6.43292 62.7444 6.43292C63.6159 6.4329 64.1124 5.77278 64.1124 4.63846ZM66.2075 5.77278C66.2075 4.83457 66.8909 4.2937 68.1041 4.21683L69.4853 4.13545V3.68557C69.4853 3.13507 69.1292 2.82423 68.4414 2.82423C67.8796 2.82423 67.4903 3.03504 67.3786 3.40354H66.4043C66.5072 2.50829 67.3311 1.93407 68.4878 1.93407C69.7662 1.93407 70.4873 2.58458 70.4873 3.68557V7.24677H69.5185V6.5143H69.4389C69.1098 7.04921 68.5247 7.36183 67.9072 7.33264C67.4743 7.37867 67.0426 7.23537 66.7188 6.93818C66.3949 6.64098 66.2092 6.21763 66.2075 5.77278ZM69.4853 5.32741V4.89166L68.2401 4.97304C67.5379 5.02108 67.2194 5.26524 67.2194 5.72473C67.2194 6.19382 67.6175 6.46681 68.1649 6.46681C68.489 6.50034 68.8125 6.398 69.0614 6.18322C69.3103 5.96843 69.4633 5.6596 69.4853 5.32741ZM71.8099 4.63846C71.8099 2.99152 72.6382 1.9482 73.9265 1.9482C74.5771 1.91756 75.1864 2.27386 75.4902 2.86261H75.5654V0H76.5718V7.24675H75.6075V6.42327H75.5278C75.201 7.00714 74.5842 7.35742 73.9265 7.33264C72.6293 7.3327 71.8099 6.28935 71.8099 4.63846ZM72.8494 4.63846C72.8494 5.74395 73.3592 6.40918 74.2119 6.40918C75.0601 6.40918 75.5843 5.73436 75.5843 4.64298C75.5843 3.5567 75.0546 2.87227 74.2119 2.87227C73.3647 2.87227 72.8494 3.542 72.8494 4.63846ZM80.7354 4.63846C80.648 3.70423 81.0863 2.8001 81.8664 2.30526C82.6466 1.81041 83.6337 1.81041 84.4139 2.30526C85.1941 2.8001 85.6323 3.70423 85.5449 4.63846C85.634 5.57369 85.1961 6.47957 84.4153 6.97548C83.6344 7.47139 82.6459 7.47139 81.865 6.97548C81.0842 6.47957 80.6463 5.57369 80.7354 4.63846ZM84.5098 4.63846C84.5098 3.50867 84.0132 2.84797 83.1418 2.84797C82.2671 2.84797 81.775 3.50867 81.775 4.63847C81.775 5.77731 82.2671 6.43292 83.1418 6.43292C84.0132 6.4329 84.5098 5.77278 84.5098 4.63846ZM86.8952 2.03466H87.8639V2.86265H87.9391C88.2006 2.25303 88.8117 1.88012 89.4608 1.93405C89.9634 1.89543 90.4559 2.0925 90.7992 2.46962C91.1426 2.84675 91.2995 3.363 91.2258 3.87262V7.2467H90.2194V4.13092C90.2194 3.29333 89.8633 2.87678 89.1191 2.87678C88.7782 2.86055 88.4473 2.9973 88.2133 3.25118C87.9793 3.50506 87.8654 3.85074 87.9015 4.1976V7.24676H86.8952V2.03466ZM96.9122 0.737009V2.0584H98.017V2.92483H96.9122V5.60492C96.9122 6.15088 97.1323 6.38995 97.6332 6.38995C97.7615 6.38953 97.8896 6.3816 98.017 6.36621V7.22302C97.8363 7.25607 97.6532 7.27365 97.4696 7.27558C96.3504 7.27558 95.9048 6.87317 95.9048 5.86828V2.92478H95.0953V2.05835H95.9048V0.737009H96.9122ZM99.3916 0H100.389V2.87225H100.469C100.743 2.2573 101.365 1.88392 102.024 1.93858C102.523 1.91078 103.009 2.11219 103.349 2.48795C103.688 2.86371 103.846 3.37467 103.78 3.88167V7.24676H102.772V4.13542C102.772 3.30291 102.393 2.88128 101.682 2.88128C101.332 2.85193 100.987 2.98203 100.739 3.2368C100.492 3.49157 100.367 3.84502 100.398 4.20267V7.24674H99.3916L99.3916 0ZM109.647 5.83946C109.365 6.82261 108.435 7.45783 107.438 7.34736C106.758 7.3657 106.105 7.07763 105.651 6.55956C105.197 6.0415 104.989 5.34582 105.082 4.65711C104.992 3.96648 105.199 3.26968 105.65 2.74724C106.101 2.2248 106.752 1.92812 107.434 1.93406C108.852 1.93406 109.708 2.92487 109.708 4.56157V4.92049H106.108V4.97814C106.076 5.3649 106.205 5.74746 106.463 6.03173C106.722 6.316 107.086 6.47561 107.466 6.4713C107.958 6.53171 108.437 6.28209 108.679 5.83942L109.647 5.83946ZM106.108 4.15974H108.683C108.709 3.80601 108.587 3.45766 108.348 3.20053C108.109 2.9434 107.775 2.8014 107.428 2.80953C107.076 2.80502 106.738 2.94584 106.489 3.20005C106.241 3.45427 106.103 3.80034 106.108 4.15974ZM19.0341 14.651C19.0368 17.0793 20.4949 19.2707 22.7375 20.2167C22.3062 21.6139 21.6561 22.9344 20.8112 24.1292C19.6766 25.8218 18.487 27.4755 16.5988 27.5061C14.7642 27.5483 14.1476 26.4293 12.0433 26.4293C9.91935 26.4293 9.26217 27.4755 7.50256 27.5483C5.7044 27.6147 4.33017 25.7417 3.15431 24.0649C0.804116 20.6406 -1.02594 14.4147 1.42751 10.1785C2.57962 8.11377 4.73376 6.80359 7.1018 6.72729C8.90159 6.69036 10.573 7.93949 11.6795 7.93949C12.765 7.93949 14.8302 6.44522 16.9605 6.66822C18.9853 6.7314 20.8617 7.74306 22.0236 9.39802C20.1901 10.5222 19.0619 12.5047 19.0341 14.651ZM15.5688 4.41618C14.57 5.6551 13.0566 6.36872 11.4627 6.35235C11.3613 4.79894 11.8833 3.26906 12.9136 2.09967C13.957 0.914429 15.4099 0.164749 16.9827 0C17.1055 1.59945 16.5983 3.18365 15.5688 4.41618Z" fill="#1E293B"/>
</svg>
