<svg width="20" height="21" viewBox="0 0 20 21" fill="none" xmlns="http://www.w3.org/2000/svg">
<path fill-rule="evenodd" clip-rule="evenodd" d="M18 0H2C0.89543 0 0 0.913597 0 2.04058V18.3652C0 19.4922 0.89543 20.4058 2 20.4058L10 20.4058V12.7236H7V9.84277H10V8.29578C10 5.36695 11.4897 4.08115 13.925 4.08115C15.0684 4.08115 15.6836 4.16422 15.9825 4.20458L16 4.20695V6.96196H14.339C13.3053 6.96196 13 7.5074 13 8.61171V9.84277H15.9741L15.5629 12.7236H13V20.4058L18 20.4058C19.1046 20.4058 20 19.4922 20 18.3652V2.04058C20 0.913597 19.1046 0 18 0Z" fill="white"/>
</svg>
