<svg width="127" height="31" viewBox="0 0 127 31" fill="none" xmlns="http://www.w3.org/2000/svg">
<path fill-rule="evenodd" clip-rule="evenodd" d="M39.3218 3.86668C39.3602 4.71314 39.0571 5.53867 38.4831 6.15062C37.8416 6.83101 36.947 7.20058 36.0227 7.16697C34.605 7.15564 33.3321 6.27763 32.7926 4.93889C32.253 3.60015 32.552 2.06159 33.5512 1.03459C34.2004 0.357772 35.0951 -0.0142947 36.0227 0.00681418C36.4955 0.00520564 36.9636 0.102361 37.3983 0.292307C37.803 0.458982 38.1632 0.721182 38.4495 1.05743L37.8568 1.66267C37.4043 1.11301 36.7249 0.812692 36.0227 0.851873C35.3169 0.848337 34.6401 1.13861 34.1484 1.65575C33.6567 2.17289 33.3926 2.87227 33.417 3.5926C33.402 4.68112 34.0298 5.67195 35.0083 6.10409C35.9868 6.53624 37.1238 6.32482 37.8903 5.56821C38.2345 5.18741 38.4329 4.6929 38.4495 4.17501H36.0227V3.35279H39.2771C39.3069 3.52239 39.3219 3.69437 39.3218 3.86668ZM44.4438 1.01175H41.4243V3.18149H44.1754V4.00371H41.4243V6.17346H44.4438V7.01852H40.5296V0.16669H44.4438V1.01175ZM48.112 7.01852H47.2509V1.01175H45.3721V0.16669H50.0356V1.01175H48.112V7.01852ZM53.3235 7.01852V0.16669H54.1846V7.01852H53.3235ZM58.0093 7.01852H57.1482V1.01175H55.2694V0.16669H59.877V1.01175H58.0093V7.01852ZM68.6113 6.12778C67.2502 7.50983 65.0516 7.50983 63.6905 6.12778C62.3712 4.70173 62.3712 2.47206 63.6905 1.04601C64.3414 0.376524 65.2271 0 66.1509 0C67.0747 0 67.9604 0.376524 68.6113 1.04601C69.9362 2.46977 69.9362 4.70402 68.6113 6.12778ZM64.328 5.5568C65.336 6.58179 66.9658 6.58179 67.9738 5.5568C68.9637 4.44243 68.9637 2.74278 67.9738 1.62841C66.9658 0.60342 65.336 0.60342 64.328 1.62841C63.338 2.74278 63.338 4.44243 64.328 5.5568ZM70.8144 7.01852V0.16669H71.8656L75.1312 5.4997V0.16669H75.9923V7.01852H75.0976L71.6867 1.43428V7.01852H70.8144ZM62.4939 17.0108C63.7638 16.9859 64.9893 17.4885 65.8895 18.4034C66.7897 19.3184 67.2877 20.5673 67.2692 21.8641C67.2692 24.5416 65.1458 26.7133 62.5237 26.7175C59.9016 26.7216 57.7716 24.5568 57.7633 21.8793C57.7551 19.2018 59.8719 17.0234 62.4939 17.0108ZM62.4939 24.8104C63.2357 24.7929 63.9391 24.4701 64.4445 23.9153C64.9498 23.3606 65.2143 22.6209 65.1779 21.8641C65.175 20.6544 64.4483 19.5694 63.3452 19.1281C62.2421 18.6868 60.9869 18.9788 60.18 19.8646C59.3731 20.7504 59.1784 22.0498 59.6891 23.1414C60.1998 24.233 61.3121 24.8948 62.4939 24.8104ZM52.0821 17.0108H52.0709C53.3409 16.9859 54.5663 17.4885 55.4665 18.4034C56.3668 19.3184 56.8647 20.5673 56.8463 21.8641C56.8463 24.5431 54.7206 26.7154 52.097 26.7175C49.4735 26.7196 47.3445 24.5507 47.3404 21.8717C47.3362 19.1928 49.4586 17.0171 52.0821 17.0108ZM52.0821 24.8104H52.0709C52.8127 24.7929 53.5161 24.4701 54.0215 23.9153C54.5269 23.3606 54.7914 22.6209 54.755 21.8641C54.7518 20.6534 54.0235 19.568 52.919 19.1276C51.8146 18.6873 50.5587 18.9817 49.753 19.8699C48.9472 20.7581 48.7556 22.0592 49.2699 23.1501C49.7842 24.241 50.8997 24.8996 52.0821 24.8104ZM39.6797 18.5068L46.468 18.4497C46.546 18.8751 46.5835 19.3073 46.5799 19.7401C46.6325 21.5167 46.0069 23.2447 44.8353 24.5592C43.4963 25.9909 41.6164 26.7612 39.6797 26.6718C36.9721 26.7794 34.4239 25.3658 33.0388 22.9878C31.6537 20.6098 31.6537 17.6485 33.0388 15.2705C34.4239 12.8924 36.9721 11.4788 39.6797 11.5864C41.5817 11.5696 43.4093 12.3399 44.7458 13.7219L43.3255 15.1722C42.3456 14.2061 41.0304 13.6764 39.6685 13.6991C36.7038 13.6991 34.3005 16.1532 34.3005 19.1805C34.3005 22.2078 36.7038 24.662 39.6685 24.662C41.0626 24.7187 42.4152 24.1712 43.3926 23.1546C44.0411 22.444 44.4352 21.5305 44.5109 20.5623H39.6797V18.5068ZM90.3519 20.1055L90.5867 20.6194L84.2233 23.303C84.6222 24.2305 85.5358 24.8148 86.5271 24.7762C87.4843 24.7786 88.3721 24.2668 88.8645 23.4286L90.4861 24.5706C89.6033 25.9198 88.1161 26.7263 86.5271 26.7175C85.264 26.7364 84.0477 26.23 83.1576 25.3147C82.2675 24.3994 81.7802 23.1538 81.8077 21.8641C81.7304 20.604 82.1674 19.3674 83.0148 18.448C83.8623 17.5285 85.0446 17.0083 86.2811 17.0108C88.1352 17.0805 89.7547 18.3117 90.3519 20.1055ZM83.8655 21.7271L88.1152 19.9228C87.7809 19.2498 87.0856 18.8454 86.3482 18.895C85.6486 18.9272 84.9912 19.2456 84.5241 19.7784C84.0571 20.3112 83.8197 21.0136 83.8655 21.7271ZM78.6987 26.432V12.1574H80.79V26.432H78.6987ZM75.2766 18.0956V17.2963H77.2001V25.941C77.2001 29.5268 75.1759 30.9999 72.7268 30.9999C70.8806 31.0112 69.2126 29.8771 68.5106 28.1336L70.3335 27.357C70.7145 28.3746 71.6602 29.0559 72.7268 29.0814C74.2924 29.0814 75.2654 28.0879 75.2654 26.2265V25.5299H75.1983C74.5698 26.2702 73.6525 26.6883 72.6932 26.6718C70.1547 26.5461 68.1598 24.4079 68.1598 21.8128C68.1598 19.2176 70.1547 17.0794 72.6932 16.9537C73.6495 16.9524 74.5608 17.3678 75.1983 18.0956H75.2766ZM72.8833 24.8104H72.8721C73.599 24.7819 74.2827 24.4509 74.7643 23.8943C75.246 23.3378 75.4836 22.6042 75.422 21.8641C75.4772 21.1275 75.2388 20.3993 74.7608 19.8446C74.2829 19.2899 73.6059 18.9557 72.8833 18.9179C71.388 19.0524 70.2411 20.3313 70.2411 21.8641C70.2411 23.397 71.388 24.6759 72.8833 24.8104ZM95.1495 12.1574H100.16C101.784 12.0382 103.338 12.8557 104.186 14.2758C105.034 15.6959 105.034 17.4806 104.186 18.9007C103.338 20.3208 101.784 21.1383 100.16 21.0191H97.2408V26.432H95.1495V12.1574ZM100.149 19.0092L100.193 19.0435C101.518 19.0435 102.592 17.9468 102.592 16.5939C102.592 15.2411 101.518 14.1444 100.193 14.1444H97.2297V19.0092H100.149ZM113.043 16.9537L113.099 16.9879C115.481 16.9879 117.337 18.4382 117.337 20.9391V26.432H115.324V25.2901H115.257C114.675 26.2136 113.646 26.7391 112.573 26.6604C111.703 26.7261 110.843 26.4295 110.19 25.838C109.537 25.2465 109.146 24.4104 109.106 23.52C109.106 21.453 111.131 20.3111 113.133 20.3111C113.893 20.3078 114.642 20.4961 115.313 20.8592V20.7108C115.26 20.1621 114.993 19.6584 114.572 19.3127C114.152 18.9669 113.613 18.8082 113.077 18.8722C112.295 18.8069 111.549 19.219 111.175 19.9228L109.319 19.1348C110.024 17.7155 111.487 16.8587 113.043 16.9537ZM112.786 24.7762L112.842 24.8104C114.102 24.7791 115.146 23.8048 115.291 22.5265C114.711 22.1958 114.054 22.0301 113.39 22.0469C112.338 22.0469 111.153 22.4237 111.153 23.5657C111.153 24.4222 112.104 24.7762 112.786 24.7762ZM124.674 17.2963H127L121.274 30.7601H119.093L121.218 25.9524L117.494 17.2963H119.731L122.213 23.4857H122.281L124.674 17.2963ZM105.874 26.432V12.1574H107.966V26.432H105.874ZM23.3868 14.556C23.6673 14.7182 23.8349 15.0085 23.8349 15.3325C23.8349 15.6564 23.6673 15.9467 23.3868 16.1085L18.2959 19.0469L14.7222 15.5923L18.6325 11.8125L23.3868 14.556ZM17.8254 11.3463L14.0779 14.9693L1.12709 2.45L12.5935 8.32589L17.8254 11.3463ZM1.31751 28.55L14.0779 16.2153L17.489 19.513L12.6131 22.3278L1.31751 28.55ZM0.362109 2.95677L13.4334 15.5921L0.349976 28.2395L0.362109 2.95677Z" fill="#1E293B"/>
</svg>
