<svg width="20" height="21" viewBox="0 0 20 21" fill="none" xmlns="http://www.w3.org/2000/svg">
<path fill-rule="evenodd" clip-rule="evenodd" d="M6 0H14C17.3137 0 20 2.74079 20 6.12173V14.284C20 17.665 17.3137 20.4058 14 20.4058H6C2.68629 20.4058 0 17.665 0 14.284V6.12173C0 2.74079 2.68629 0 6 0ZM16 3.06086C16.5 3.06086 17 3.57101 17 4.08115C17 4.59129 16.5 5.10144 16 5.10144C15.5 5.10144 15 4.59129 15 4.08115C15 3.57101 15.5 3.06086 16 3.06086ZM15 10.2029C15 7.38943 12.7575 5.10144 10 5.10144C7.2425 5.10144 5 7.38943 5 10.2029C5 13.0163 7.2425 15.3043 10 15.3043C12.7575 15.3043 15 13.0163 15 10.2029ZM10 7.14201C8.34315 7.14201 7 8.51241 7 10.2029C7 11.8933 8.34315 13.2637 10 13.2637C11.6569 13.2637 13 11.8933 13 10.2029C13 8.51241 11.6569 7.14201 10 7.14201Z" fill="white"/>
</svg>
