<svg width="20" height="21" viewBox="0 0 20 21" fill="none" xmlns="http://www.w3.org/2000/svg">
<path fill-rule="evenodd" clip-rule="evenodd" d="M18 0H2C0.89543 0 0 0.913597 0 2.04058V18.3652C0 19.4922 0.89543 20.4058 2 20.4058H18C19.1046 20.4058 20 19.4922 20 18.3652V2.04058C20 0.913597 19.1046 0 18 0ZM4 4.65663C4 5.5376 4.70032 6.25333 5.56637 6.25333C6.4297 6.25333 7.13184 5.5376 7.13184 4.65663C7.13184 3.77659 6.4297 3.06086 5.56637 3.06086C4.70123 3.06086 4 3.77566 4 4.65663ZM4.25044 16.3246H6.93695V7.51305H4.25044V16.3246ZM17 16.3246H14.3153V12.0395C14.3153 11.0174 14.2971 9.70294 12.9192 9.70294C11.5213 9.70294 11.3064 10.816 11.3064 11.9652V16.3246H8.62172V7.51305H11.1989V8.71708H11.2354C11.5942 8.02455 12.4703 7.29397 13.7771 7.29397C16.4973 7.29397 17 9.11903 17 11.4918V16.3246Z" fill="white"/>
</svg>
