<svg width="100" height="40" viewBox="0 0 100 40" fill="none" xmlns="http://www.w3.org/2000/svg">
<g clip-path="url(#clip0_1_4695)">
<path d="M13.4997 8C6.04425 8 0 14.0442 0 21.4997C0 25.7412 1.95784 29.5253 5.01677 32L5.94401 27.4312C4.07701 25.4577 3.17327 23.2602 2.85062 22.4363C2.58435 22.6901 2.4011 23.0284 2.35098 23.4121C2.2382 23.2022 2.18652 22.9579 2.21471 22.7042C2.29146 22.0181 2.93206 21.5216 3.64472 21.5968C3.9705 21.6313 4.25556 21.7785 4.46075 21.9946C4.39496 21.9806 4.32761 21.968 4.2587 21.9618C3.94857 21.9289 3.64942 21.9774 3.38158 22.0902C3.93604 23.1208 5.98003 26.3567 10.3672 27.5706C12.3908 28.1297 14.546 28.1297 16.5696 27.5706C20.9567 26.3567 23.0023 23.1208 23.5552 22.0902C23.2873 21.979 22.9882 21.9289 22.6781 21.9618C22.6091 21.9696 22.5418 21.9806 22.476 21.9946C22.6812 21.7785 22.9663 21.6313 23.292 21.5968C24.0047 21.5216 24.6453 22.0181 24.7221 22.7042C24.7502 22.9579 24.6986 23.2007 24.5858 23.4121C24.5357 23.0284 24.3524 22.6901 24.0861 22.4363C23.7666 23.2524 22.8754 25.4185 21.0429 27.3779L21.9811 32.0016C25.0416 29.5269 26.9978 25.7427 26.9978 21.5013C26.9978 14.0442 20.9552 8 13.4997 8ZM13.4997 13.0575C15.3573 13.0575 16.8688 14.9198 16.8688 17.2097H15.6314C15.6314 15.6027 14.6744 14.2949 13.4981 14.2949C12.3219 14.2949 11.3649 15.6027 11.3649 17.2097H10.1291C10.1291 14.9198 11.6405 13.0575 13.4997 13.0575ZM16.4051 26.6653C15.4513 26.9284 14.4645 27.0631 13.4684 27.0631C12.4722 27.0631 11.4855 26.93 10.5316 26.6653C8.81655 26.1907 7.48052 25.3919 6.46557 24.5461L7.81414 17.8941H19.1821L20.5213 24.5007C19.5017 25.3621 18.15 26.1813 16.4051 26.6653Z" fill="#14B8A6"/>
</g>
<path d="M40.6413 29.5V10.5909H44.6392V26.2038H52.7457V29.5H40.6413ZM60.9471 29.777C59.5129 29.777 58.2726 29.4723 57.2262 28.8629C56.1859 28.2474 55.3827 27.3918 54.8164 26.2962C54.2501 25.1944 53.967 23.9171 53.967 22.4645C53.967 20.9995 54.2501 19.7192 54.8164 18.6236C55.3827 17.5218 56.1859 16.6662 57.2262 16.0568C58.2726 15.4413 59.5129 15.1335 60.9471 15.1335C62.3813 15.1335 63.6185 15.4413 64.6587 16.0568C65.7051 16.6662 66.5115 17.5218 67.0778 18.6236C67.644 19.7192 67.9272 20.9995 67.9272 22.4645C67.9272 23.9171 67.644 25.1944 67.0778 26.2962C66.5115 27.3918 65.7051 28.2474 64.6587 28.8629C63.6185 29.4723 62.3813 29.777 60.9471 29.777ZM60.9655 26.7301C61.618 26.7301 62.1627 26.5455 62.5998 26.1761C63.0368 25.8007 63.3661 25.2898 63.5877 24.6435C63.8154 23.9972 63.9293 23.2616 63.9293 22.4368C63.9293 21.612 63.8154 20.8764 63.5877 20.2301C63.3661 19.5838 63.0368 19.0729 62.5998 18.6974C62.1627 18.322 61.618 18.1342 60.9655 18.1342C60.3069 18.1342 59.7529 18.322 59.3036 18.6974C58.8604 19.0729 58.525 19.5838 58.2972 20.2301C58.0756 20.8764 57.9648 21.612 57.9648 22.4368C57.9648 23.2616 58.0756 23.9972 58.2972 24.6435C58.525 25.2898 58.8604 25.8007 59.3036 26.1761C59.7529 26.5455 60.3069 26.7301 60.9655 26.7301ZM76.0939 35.1136C74.8198 35.1136 73.7272 34.9382 72.8162 34.5874C71.9114 34.2427 71.1912 33.7718 70.6557 33.1747C70.1202 32.5777 69.7724 31.9067 69.6124 31.1619L73.2502 30.6726C73.361 30.9557 73.5364 31.2204 73.7765 31.4666C74.0165 31.7128 74.3335 31.9098 74.7274 32.0575C75.1275 32.2114 75.6138 32.2884 76.1863 32.2884C77.0418 32.2884 77.7466 32.0791 78.3006 31.6605C78.8607 31.2481 79.1408 30.5556 79.1408 29.5831V26.9886H78.9746C78.8023 27.3826 78.5437 27.755 78.199 28.1058C77.8543 28.4567 77.4112 28.7429 76.8695 28.9645C76.3278 29.1861 75.6815 29.2969 74.9306 29.2969C73.8657 29.2969 72.8962 29.0507 72.0222 28.5582C71.1543 28.0597 70.4618 27.2995 69.9448 26.2777C69.4339 25.2498 69.1784 23.951 69.1784 22.3814C69.1784 20.7749 69.44 19.433 69.9632 18.3558C70.4864 17.2786 71.182 16.4723 72.0499 15.9368C72.9239 15.4013 73.8811 15.1335 74.9213 15.1335C75.7154 15.1335 76.3801 15.2689 76.9157 15.5398C77.4512 15.8045 77.882 16.1368 78.2083 16.5369C78.5407 16.9309 78.7961 17.3187 78.9746 17.7003H79.1223V15.3182H83.0279V29.6385C83.0279 30.8449 82.7324 31.8544 82.1415 32.6669C81.5506 33.4794 80.7319 34.0888 79.6855 34.495C78.6453 34.9074 77.4481 35.1136 76.0939 35.1136ZM76.177 26.3423C76.811 26.3423 77.3465 26.1854 77.7836 25.8714C78.2267 25.5514 78.5653 25.0959 78.7992 24.505C79.0392 23.9079 79.1593 23.1939 79.1593 22.3629C79.1593 21.532 79.0423 20.8118 78.8084 20.2024C78.5745 19.5869 78.236 19.1098 77.7928 18.7713C77.3496 18.4328 76.811 18.2635 76.177 18.2635C75.5307 18.2635 74.986 18.4389 74.5428 18.7898C74.0996 19.1345 73.7641 19.6146 73.5364 20.2301C73.3086 20.8456 73.1948 21.5566 73.1948 22.3629C73.1948 23.1816 73.3086 23.8894 73.5364 24.4865C73.7703 25.0774 74.1058 25.536 74.5428 25.8622C74.986 26.1823 75.5307 26.3423 76.177 26.3423ZM91.7855 29.777C90.3513 29.777 89.111 29.4723 88.0646 28.8629C87.0244 28.2474 86.2211 27.3918 85.6548 26.2962C85.0885 25.1944 84.8054 23.9171 84.8054 22.4645C84.8054 20.9995 85.0885 19.7192 85.6548 18.6236C86.2211 17.5218 87.0244 16.6662 88.0646 16.0568C89.111 15.4413 90.3513 15.1335 91.7855 15.1335C93.2197 15.1335 94.4569 15.4413 95.4972 16.0568C96.5436 16.6662 97.3499 17.5218 97.9162 18.6236C98.4825 19.7192 98.7656 20.9995 98.7656 22.4645C98.7656 23.9171 98.4825 25.1944 97.9162 26.2962C97.3499 27.3918 96.5436 28.2474 95.4972 28.8629C94.4569 29.4723 93.2197 29.777 91.7855 29.777ZM91.804 26.7301C92.4564 26.7301 93.0012 26.5455 93.4382 26.1761C93.8752 25.8007 94.2045 25.2898 94.4261 24.6435C94.6539 23.9972 94.7678 23.2616 94.7678 22.4368C94.7678 21.612 94.6539 20.8764 94.4261 20.2301C94.2045 19.5838 93.8752 19.0729 93.4382 18.6974C93.0012 18.322 92.4564 18.1342 91.804 18.1342C91.1454 18.1342 90.5914 18.322 90.142 18.6974C89.6989 19.0729 89.3634 19.5838 89.1357 20.2301C88.9141 20.8764 88.8033 21.612 88.8033 22.4368C88.8033 23.2616 88.9141 23.9972 89.1357 24.6435C89.3634 25.2898 89.6989 25.8007 90.142 26.1761C90.5914 26.5455 91.1454 26.7301 91.804 26.7301Z" fill="#14B8A6"/>
<defs>
<clipPath id="clip0_1_4695">
<rect width="26.9978" height="24" fill="white" transform="translate(0 8)"/>
</clipPath>
</defs>
</svg>
