<svg width="344" height="344" viewBox="0 0 344 344" fill="none" xmlns="http://www.w3.org/2000/svg">
<path d="M205.559 76.5986L211.953 131.965L267.261 138.843L227.96 178.362L257.068 225.893L201.666 219.806L182.654 272.198L152.87 225.088L100.055 242.889L118.317 190.231L71.4696 160.037L124.025 141.483L118.423 86.0311L165.697 115.553L205.559 76.5986Z" fill="#CCFBF1"/>
<path d="M161.507 71.3085L191.012 118.593L243.932 101.104L225.359 153.653L272.028 184.123L219.363 202.366L224.638 257.851L177.539 228.051L137.449 266.769L131.382 211.365L76.1145 204.162L115.648 164.875L86.8214 117.174L142.186 123.587L161.507 71.3085Z" fill="white"/>
<path d="M146.918 153.833C145.511 153.324 144.234 152.605 143.087 151.675C141.949 150.749 141.047 149.58 140.382 148.168C139.718 146.757 139.387 145.082 139.392 143.144C139.405 141.21 139.856 138.989 140.746 136.481C141.572 134.181 142.565 132.218 143.726 130.59C144.898 128.956 146.196 127.678 147.618 126.756C149.05 125.837 150.565 125.29 152.165 125.114C153.768 124.929 155.417 125.137 157.113 125.739C158.942 126.388 160.431 127.318 161.579 128.529C162.73 129.731 163.514 131.09 163.931 132.604C164.357 134.122 164.392 135.667 164.035 137.238L158.319 135.21C158.435 134.176 158.232 133.26 157.711 132.462C157.191 131.665 156.404 131.079 155.351 130.705C153.566 130.072 151.934 130.367 150.455 131.591C148.984 132.817 147.767 134.762 146.802 137.424L146.99 137.49C147.688 136.824 148.487 136.329 149.386 136.004C150.297 135.674 151.252 135.516 152.252 135.529C153.265 135.537 154.27 135.718 155.27 136.073C156.894 136.649 158.204 137.546 159.199 138.763C160.197 139.971 160.826 141.37 161.086 142.959C161.346 144.549 161.172 146.2 160.564 147.914C159.905 149.77 158.887 151.268 157.508 152.406C156.138 153.548 154.536 154.255 152.7 154.529C150.877 154.796 148.95 154.564 146.918 153.833ZM148.506 149.272C149.399 149.589 150.274 149.658 151.131 149.48C151.988 149.302 152.747 148.918 153.408 148.329C154.069 147.74 154.561 146.99 154.884 146.079C155.207 145.169 155.296 144.281 155.151 143.416C155.015 142.554 154.675 141.785 154.131 141.109C153.587 140.434 152.868 139.938 151.976 139.621C151.307 139.384 150.642 139.289 149.982 139.336C149.331 139.386 148.712 139.559 148.126 139.853C147.548 140.15 147.034 140.551 146.584 141.054C146.137 141.549 145.797 142.126 145.562 142.787C145.249 143.67 145.163 144.549 145.305 145.424C145.456 146.301 145.802 147.082 146.343 147.766C146.893 148.454 147.614 148.956 148.506 149.272ZM170.82 162.571C168.521 161.745 166.741 160.475 165.48 158.762C164.228 157.051 163.534 154.971 163.398 152.522C163.271 150.075 163.745 147.354 164.817 144.359C165.878 141.369 167.224 138.978 168.855 137.185C170.495 135.396 172.335 134.245 174.375 133.733C176.428 133.215 178.601 133.363 180.895 134.177C183.188 134.991 184.964 136.244 186.223 137.937C187.49 139.632 188.196 141.692 188.341 144.115C188.49 146.528 188.029 149.229 186.959 152.215C185.892 155.223 184.534 157.635 182.885 159.451C181.244 161.271 179.399 162.45 177.349 162.988C175.299 163.527 173.123 163.388 170.82 162.571ZM172.525 157.765C174.096 158.322 175.63 157.977 177.128 156.73C178.625 155.483 179.93 153.278 181.042 150.116C181.78 148.036 182.18 146.229 182.243 144.694C182.314 143.162 182.085 141.91 181.556 140.938C181.035 139.97 180.253 139.3 179.209 138.93C177.647 138.375 176.12 138.713 174.629 139.942C173.138 141.172 171.835 143.342 170.721 146.454C169.974 148.56 169.56 150.392 169.479 151.951C169.41 153.504 169.639 154.771 170.165 155.752C170.694 156.723 171.481 157.394 172.525 157.765ZM201.938 167.146L202.451 165.7C202.84 164.603 203.43 163.676 204.22 162.922C205.023 162.162 205.968 161.663 207.057 161.426C208.158 161.184 209.355 161.292 210.649 161.752C211.961 162.217 212.965 162.885 213.661 163.755C214.366 164.628 214.782 165.609 214.908 166.699C215.046 167.783 214.918 168.878 214.525 169.985L214.012 171.431C213.623 172.528 213.032 173.459 212.238 174.222C211.448 174.977 210.504 175.471 209.406 175.704C208.305 175.947 207.108 175.839 205.814 175.379C204.502 174.914 203.499 174.242 202.806 173.363C202.11 172.493 201.693 171.516 201.555 170.432C201.421 169.339 201.548 168.244 201.938 167.146ZM206.346 167.083L205.833 168.528C205.608 169.162 205.548 169.814 205.652 170.484C205.765 171.157 206.227 171.637 207.039 171.926C207.851 172.214 208.503 172.133 208.994 171.685C209.494 171.239 209.859 170.69 210.09 170.039L210.603 168.593C210.834 167.942 210.907 167.284 210.821 166.62C210.735 165.957 210.272 165.476 209.433 165.179C208.63 164.894 207.973 164.977 207.461 165.428C206.949 165.88 206.577 166.431 206.346 167.083ZM193.435 146.464L193.948 145.019C194.341 143.912 194.937 142.983 195.736 142.232C196.538 141.471 197.484 140.973 198.572 140.736C199.67 140.503 200.857 140.612 202.133 141.065C203.454 141.534 204.463 142.203 205.159 143.073C205.855 143.943 206.27 144.925 206.405 146.017C206.543 147.101 206.416 148.197 206.023 149.303L205.51 150.749C205.117 151.856 204.521 152.785 203.722 153.536C202.932 154.291 201.988 154.785 200.89 155.018C199.805 155.246 198.61 155.129 197.307 154.666C196.004 154.204 195 153.536 194.295 152.663C193.602 151.784 193.185 150.807 193.044 149.732C192.915 148.651 193.046 147.562 193.435 146.464ZM197.87 146.41L197.357 147.856C197.126 148.508 197.064 149.164 197.171 149.825C197.287 150.489 197.738 150.961 198.523 151.239C199.344 151.531 200 151.452 200.491 151.003C200.991 150.557 201.356 150.009 201.588 149.357L202.101 147.911C202.332 147.26 202.404 146.602 202.318 145.939C202.232 145.275 201.765 144.793 200.917 144.492C200.123 144.21 199.473 144.301 198.967 144.765C198.461 145.228 198.095 145.777 197.87 146.41ZM187.811 167.921L216.388 147.193L219.895 148.438L191.318 169.166L187.811 167.921ZM145.196 204.185C143.117 203.447 141.475 202.367 140.272 200.945C139.08 199.518 138.356 197.864 138.098 195.984C137.844 194.095 138.091 192.098 138.838 189.991C139.592 187.867 140.661 186.157 142.045 184.859C143.433 183.553 145.038 182.726 146.86 182.378C148.694 182.024 150.65 182.215 152.73 182.953C154.809 183.691 156.445 184.774 157.636 186.201C158.84 187.623 159.569 189.279 159.823 191.167C160.081 193.047 159.832 195.049 159.079 197.173C158.331 199.28 157.264 200.986 155.876 202.292C154.491 203.589 152.882 204.415 151.048 204.769C149.226 205.117 147.276 204.923 145.196 204.185ZM146.791 199.777C147.737 200.112 148.621 200.125 149.445 199.814C150.272 199.495 151.012 198.923 151.666 198.1C152.329 197.28 152.872 196.272 153.297 195.076C153.721 193.881 153.934 192.756 153.936 191.701C153.948 190.65 153.733 189.74 153.293 188.971C152.852 188.202 152.159 187.649 151.213 187.313C150.258 186.975 149.358 186.962 148.513 187.275C147.678 187.591 146.929 188.16 146.266 188.98C145.612 189.803 145.073 190.812 144.649 192.008C144.224 193.204 144.007 194.327 143.995 195.378C143.993 196.433 144.217 197.346 144.666 198.118C145.127 198.885 145.836 199.438 146.791 199.777ZM176.39 191.65L174.87 195.934L162.179 191.431L163.699 187.147L176.39 191.65ZM159.308 208.74L167.131 186.692C167.66 185.201 168.389 184.068 169.317 183.292C170.255 182.52 171.319 182.068 172.511 181.939C173.702 181.809 174.945 181.973 176.239 182.433C177.114 182.743 177.889 183.093 178.564 183.484C179.248 183.877 179.75 184.191 180.069 184.425L177.532 188.347C177.334 188.197 177.081 188.032 176.773 187.852C176.474 187.676 176.155 187.527 175.816 187.407C174.977 187.109 174.322 187.098 173.853 187.374C173.387 187.64 173.03 188.122 172.783 188.818L164.998 210.759L159.308 208.74ZM189.8 196.408L188.28 200.692L175.59 196.189L177.11 191.905L189.8 196.408ZM172.719 213.498L180.542 191.45C181.071 189.96 181.799 188.827 182.728 188.051C183.665 187.278 184.73 186.827 185.921 186.697C187.113 186.567 188.356 186.732 189.65 187.191C190.524 187.501 191.299 187.852 191.975 188.242C192.659 188.636 193.161 188.949 193.48 189.183L190.942 193.106C190.744 192.955 190.492 192.79 190.183 192.61C189.884 192.434 189.565 192.286 189.226 192.165C188.387 191.868 187.733 191.856 187.263 192.132C186.797 192.399 186.44 192.88 186.193 193.576L178.408 215.517L172.719 213.498Z" fill="#14B8A6"/>
</svg>
