<svg width="48" height="48" viewBox="0 0 48 48" fill="none" xmlns="http://www.w3.org/2000/svg">
<path d="M10 36H6C4.8 36 4 35.2 4 34V14C4 12.8 4.8 12 6 12H26C27.2 12 28 12.8 28 14V36" stroke="#1E293B" stroke-linecap="round" stroke-linejoin="round"/>
<path d="M28 18H36L44 26V34C44 35.2 43.2 36 42 36H38" stroke="#1E293B" stroke-linecap="round" stroke-linejoin="round"/>
<path d="M14 40C16.2091 40 18 38.2091 18 36C18 33.7909 16.2091 32 14 32C11.7909 32 10 33.7909 10 36C10 38.2091 11.7909 40 14 40Z" stroke="#1E293B" stroke-linecap="round" stroke-linejoin="round"/>
<path d="M30 36H18" stroke="#1E293B" stroke-linecap="round" stroke-linejoin="round"/>
<path d="M34 40C36.2091 40 38 38.2091 38 36C38 33.7909 36.2091 32 34 32C31.7909 32 30 33.7909 30 36C30 38.2091 31.7909 40 34 40Z" stroke="#1E293B" stroke-linecap="round" stroke-linejoin="round"/>
</svg>
