<svg width="20" height="21" viewBox="0 0 20 21" fill="none" xmlns="http://www.w3.org/2000/svg">
<path fill-rule="evenodd" clip-rule="evenodd" d="M18 0H2C0.89543 0 0 0.913597 0 2.04058V18.3652C0 19.4922 0.89543 20.4058 2 20.4058H18C19.1046 20.4058 20 19.4922 20 18.3652V2.04058C20 0.913597 19.1046 0 18 0ZM15.3502 6.36594C15.9312 6.29742 16.4847 6.14551 17 5.91976C16.615 6.48758 16.1277 6.98636 15.5661 7.38633C15.5715 7.50797 15.5742 7.63014 15.5742 7.75284C15.5742 11.4971 12.686 15.8145 7.40283 15.8145C5.78051 15.8145 4.27126 15.3454 3 14.5418C3.22507 14.5683 3.45391 14.5816 3.68544 14.5816C5.03154 14.5816 6.26995 14.1285 7.25261 13.3684C5.99588 13.3456 4.93516 12.526 4.56956 11.4004C4.74455 11.4328 4.92493 11.4509 5.10961 11.4509C5.37183 11.4509 5.62598 11.4163 5.86666 11.3515C4.55232 11.0918 3.56267 9.94658 3.56267 8.5735V8.53791C3.94981 8.74985 4.39295 8.87733 4.86354 8.89221C4.09303 8.3844 3.58636 7.517 3.58636 6.53433C3.58636 6.01431 3.72797 5.52775 3.97458 5.10919C5.39175 6.82382 7.50783 7.95203 9.89474 8.06995C9.84628 7.86332 9.82043 7.6466 9.82043 7.42457C9.82043 5.86027 11.1062 4.59129 12.6925 4.59129C13.5184 4.59129 14.2647 4.93549 14.7886 5.48632C15.4434 5.35884 16.0583 5.123 16.6129 4.79845C16.3986 5.46029 15.9436 6.01537 15.3502 6.36594Z" fill="white"/>
</svg>
